<svg width="32" height="32" viewBox="0 0 32 32" fill="none" xmlns="http://www.w3.org/2000/svg">
<g clip-path="url(#clip0_29_1690)">
<path d="M19.5387 23.4367C19.3905 23.585 19.2146 23.7026 19.0209 23.7828C18.8272 23.8631 18.6196 23.9044 18.41 23.9044C18.2004 23.9044 17.9928 23.8631 17.7991 23.7828C17.6055 23.7026 17.4295 23.585 17.2813 23.4367L8.09933 14.2562C6.77503 12.9049 6.03753 11.0855 6.04709 9.19348C6.05664 7.30146 6.81249 5.48965 8.15037 4.15177C9.48824 2.81389 11.3001 2.05805 13.1921 2.04849C15.0841 2.03894 16.9034 2.77644 18.2548 4.10074L24.0579 9.90384C24.3565 10.204 24.5236 10.6104 24.5225 11.0338C24.5214 11.4571 24.3522 11.8627 24.0521 12.1613C23.752 12.4598 23.3455 12.627 22.9222 12.6259C22.4988 12.6248 22.0933 12.4556 21.7947 12.1555L15.9988 6.35234C15.2501 5.60358 14.2345 5.18293 13.1756 5.18293C12.1167 5.18293 11.1012 5.60358 10.3524 6.35234C9.60363 7.1011 9.18298 8.11664 9.18298 9.17555C9.18298 10.2345 9.60363 11.25 10.3524 11.9988L19.5344 21.1807C19.8339 21.4794 20.0027 21.8848 20.0035 22.3078C20.0043 22.7308 19.8371 23.1369 19.5387 23.4367Z" fill="#E7DEFE"/>
<path d="M24.0013 27.8993C22.6534 29.2438 20.8273 29.9988 18.9236 29.9988C17.0198 29.9988 15.1937 29.2438 13.8458 27.8993L8.04998 22.0962C7.88914 21.9511 7.75953 21.7748 7.66903 21.578C7.57853 21.3812 7.52904 21.168 7.52358 20.9515C7.51812 20.735 7.55679 20.5196 7.63725 20.3185C7.71771 20.1173 7.83826 19.9347 7.99158 19.7817C8.14489 19.6287 8.32775 19.5085 8.52901 19.4284C8.73028 19.3483 8.94574 19.3101 9.16226 19.316C9.37879 19.3219 9.59185 19.3718 9.78848 19.4626C9.9851 19.5535 10.1612 19.6835 10.3059 19.8446L16.1018 25.6477C16.8517 26.3876 17.8638 26.8009 18.9173 26.7974C19.9708 26.7938 20.9801 26.3738 21.725 25.6288C22.47 24.8839 22.89 23.8746 22.8935 22.8211C22.8971 21.7676 22.4838 20.7555 21.7439 20.0056L12.5619 10.8193C12.2625 10.5199 12.0944 10.1139 12.0944 9.69059C12.0944 9.26724 12.2625 8.86124 12.5619 8.56188C12.8612 8.26253 13.2673 8.09436 13.6906 8.09436C14.1139 8.09436 14.52 8.26253 14.8193 8.56188L24.0013 17.7439C25.3461 19.0915 26.1014 20.9177 26.1014 22.8216C26.1014 24.7255 25.3461 26.5516 24.0013 27.8993Z" fill="#E7DEFE"/>
</g>
<defs>
<clipPath id="clip0_29_1690">
<rect width="20.1005" height="28" fill="white" transform="translate(6 2)"/>
</clipPath>
</defs>
</svg>
