<svg width="32" height="32" viewBox="0 0 32 32" fill="none" xmlns="http://www.w3.org/2000/svg">
<g clip-path="url(#clip0_76_6523)">
<path d="M19.5387 23.4371C19.3905 23.5854 19.2146 23.703 19.0209 23.7833C18.8272 23.8635 18.6196 23.9048 18.41 23.9048C18.2004 23.9048 17.9928 23.8635 17.7991 23.7833C17.6055 23.703 17.4295 23.5854 17.2813 23.4371L8.09933 14.2566C6.77503 12.9053 6.03753 11.0859 6.04709 9.19391C6.05664 7.30188 6.81249 5.49008 8.15037 4.1522C9.48824 2.81432 11.3001 2.05848 13.1921 2.04892C15.0841 2.03936 16.9034 2.77687 18.2548 4.10116L24.0579 9.90427C24.3565 10.2044 24.5236 10.6108 24.5225 11.0342C24.5214 11.4575 24.3522 11.8631 24.0521 12.1617C23.752 12.4603 23.3455 12.6274 22.9222 12.6263C22.4988 12.6252 22.0933 12.456 21.7947 12.1559L15.9988 6.35277C15.2501 5.60401 14.2345 5.18336 13.1756 5.18336C12.1167 5.18336 11.1012 5.60401 10.3524 6.35277C9.60363 7.10153 9.18298 8.11707 9.18298 9.17598C9.18298 10.2349 9.60363 11.2504 10.3524 11.9992L19.5344 21.1812C19.8339 21.4798 20.0027 21.8852 20.0035 22.3082C20.0043 22.7313 19.8371 23.1373 19.5387 23.4371Z" fill="#7C5CFC"/>
<path d="M24.0013 27.8997C22.6534 29.2441 20.8273 29.9992 18.9236 29.9992C17.0198 29.9992 15.1937 29.2441 13.8458 27.8997L8.04998 22.0966C7.88914 21.9515 7.75953 21.7751 7.66903 21.5784C7.57853 21.3816 7.52904 21.1684 7.52358 20.9519C7.51812 20.7353 7.55679 20.5199 7.63725 20.3188C7.71771 20.1177 7.83826 19.9351 7.99158 19.7821C8.14489 19.6291 8.32775 19.5089 8.52901 19.4288C8.73028 19.3487 8.94574 19.3105 9.16226 19.3163C9.37879 19.3222 9.59185 19.3721 9.78848 19.463C9.9851 19.5539 10.1612 19.6838 10.3059 19.8449L16.1018 25.6481C16.8517 26.388 17.8638 26.8013 18.9173 26.7977C19.9708 26.7942 20.9801 26.3741 21.725 25.6292C22.47 24.8843 22.89 23.875 22.8935 22.8215C22.8971 21.768 22.4838 20.7559 21.7439 20.006L12.5619 10.8197C12.2625 10.5203 12.0944 10.1143 12.0944 9.69096C12.0944 9.26761 12.2625 8.8616 12.5619 8.56225C12.8612 8.2629 13.2673 8.09473 13.6906 8.09473C14.1139 8.09473 14.52 8.2629 14.8193 8.56225L24.0013 17.7442C25.3461 19.0919 26.1014 20.918 26.1014 22.8219C26.1014 24.7258 25.3461 26.552 24.0013 27.8997Z" fill="#7C5CFC"/>
</g>
<defs>
<clipPath id="clip0_76_6523">
<rect width="20.1005" height="28" fill="white" transform="translate(6 2)"/>
</clipPath>
</defs>
</svg>
