<svg width="32" height="32" viewBox="0 0 32 32" fill="none" xmlns="http://www.w3.org/2000/svg">
<g clip-path="url(#clip0_14_1708)">
<path d="M19.5386 23.4367C19.3904 23.585 19.2144 23.7026 19.0208 23.7828C18.8271 23.8631 18.6195 23.9044 18.4099 23.9044C18.2003 23.9044 17.9927 23.8631 17.799 23.7828C17.6053 23.7026 17.4294 23.585 17.2812 23.4367L8.09921 14.2562C6.77491 12.9049 6.03741 11.0855 6.04697 9.19348C6.05652 7.30146 6.81236 5.48965 8.15024 4.15177C9.48812 2.81389 11.2999 2.05805 13.192 2.04849C15.084 2.03894 16.9033 2.77644 18.2547 4.10074L24.0578 9.90384C24.3563 10.204 24.5235 10.6104 24.5224 11.0338C24.5213 11.4571 24.3521 11.8627 24.052 12.1613C23.7518 12.4598 23.3454 12.627 22.9221 12.6259C22.4987 12.6248 22.0931 12.4556 21.7945 12.1555L15.9987 6.35234C15.2499 5.60358 14.2344 5.18293 13.1755 5.18293C12.1166 5.18293 11.101 5.60358 10.3523 6.35234C9.6035 7.1011 9.18285 8.11664 9.18285 9.17555C9.18285 10.2345 9.6035 11.25 10.3523 11.9988L19.5342 21.1807C19.8338 21.4794 20.0026 21.8848 20.0034 22.3078C20.0042 22.7308 19.837 23.1369 19.5386 23.4367Z" fill="black"/>
<path d="M24.0012 27.8993C22.6533 29.2438 20.8272 29.9988 18.9234 29.9988C17.0197 29.9988 15.1936 29.2438 13.8457 27.8993L8.04986 22.0962C7.88902 21.9511 7.75941 21.7748 7.66891 21.578C7.57841 21.3812 7.52892 21.168 7.52346 20.9515C7.51799 20.735 7.55667 20.5196 7.63713 20.3185C7.71758 20.1173 7.83814 19.9347 7.99145 19.7817C8.14477 19.6287 8.32762 19.5085 8.52889 19.4284C8.73015 19.3483 8.94561 19.3101 9.16214 19.316C9.37867 19.3219 9.59173 19.3718 9.78835 19.4626C9.98497 19.5535 10.161 19.6835 10.3058 19.8446L16.1017 25.6477C16.8516 26.3876 17.8637 26.8009 18.9172 26.7974C19.9707 26.7938 20.98 26.3738 21.7249 25.6288C22.4698 24.8839 22.8899 23.8746 22.8934 22.8211C22.8969 21.7676 22.4837 20.7555 21.7437 20.0056L12.5618 10.8193C12.2624 10.5199 12.0942 10.1139 12.0942 9.69059C12.0942 9.26724 12.2624 8.86124 12.5618 8.56188C12.8611 8.26253 13.2671 8.09436 13.6905 8.09436C14.1138 8.09436 14.5198 8.26253 14.8192 8.56188L24.0012 17.7439C25.346 19.0915 26.1013 20.9177 26.1013 22.8216C26.1013 24.7255 25.346 26.5516 24.0012 27.8993Z" fill="black"/>
</g>
<defs>
<clipPath id="clip0_14_1708">
<rect width="20.1005" height="28" fill="white" transform="translate(6 2)"/>
</clipPath>
</defs>
</svg>
