<svg width="23" height="23" viewBox="0 0 23 23" fill="none" xmlns="http://www.w3.org/2000/svg">
<path d="M9.104 13.1771C9.104 14.1066 9.82277 14.8541 10.7044 14.8541H12.5061C13.2727 14.8541 13.8957 14.2025 13.8957 13.3879C13.8957 12.5158 13.5123 12.1996 12.9469 11.9983L10.0623 10.9921C9.49692 10.7908 9.1136 10.4841 9.1136 9.60248C9.1136 8.79748 9.7365 8.13623 10.5032 8.13623H12.3048C13.1865 8.13623 13.9053 8.88373 13.9053 9.81331" stroke="#1A202C" stroke-width="1.5" stroke-linecap="round" stroke-linejoin="round"/>
<path d="M11.5 7.1875V15.8125" stroke="#1A202C" stroke-width="1.5" stroke-linecap="round" stroke-linejoin="round"/>
<path d="M21.0832 11.5C21.0832 16.79 16.7898 21.0833 11.4998 21.0833C6.20984 21.0833 1.9165 16.79 1.9165 11.5C1.9165 6.20996 6.20984 1.91663 11.4998 1.91663" stroke="#1A202C" stroke-width="1.5" stroke-linecap="round" stroke-linejoin="round"/>
<path d="M21.0833 5.74996V1.91663H17.25" stroke="#1A202C" stroke-width="1.5" stroke-linecap="round" stroke-linejoin="round"/>
<path d="M16.2915 6.70829L21.0832 1.91663" stroke="#1A202C" stroke-width="1.5" stroke-linecap="round" stroke-linejoin="round"/>
</svg>
